<svg width="305" height="79" viewBox="0 0 305 79" fill="none" xmlns="http://www.w3.org/2000/svg">
<line x1="213.238" y1="38.5" x2="305" y2="38.5" stroke="black" stroke-width="3"/>
<line y1="38.5" x2="91.7622" y2="38.5" stroke="black" stroke-width="3"/>
<path d="M155.602 54.3V43.1C155.602 38.1 156.969 33.7333 159.702 30C162.436 26.2 166.636 23.8667 172.302 23V30.3C169.036 30.7 166.869 31.7667 165.802 33.5C164.736 35.2333 164.202 37.5333 164.202 40.4L158.302 39.2H172.102V54.3H155.602ZM133.902 54.3V43.1C133.902 38.1 135.269 33.7333 138.002 30C140.736 26.2 144.936 23.8667 150.602 23V30.3C147.336 30.7 145.169 31.7667 144.102 33.5C143.036 35.2333 142.502 37.5333 142.502 40.4L136.602 39.2H150.402V54.3H133.902Z" fill="black"/>
</svg>
