<svg width="319" height="37" viewBox="0 0 319 37" fill="none" xmlns="http://www.w3.org/2000/svg">
<rect x="0.5" y="0.493408" width="35.25" height="35.25" rx="17.625" fill="white"/>
<rect x="0.5" y="0.493408" width="35.25" height="35.25" rx="17.625" stroke="#868686"/>
<path d="M8.77203 24.1184V22.4084L12.876 18.0344C13.248 17.6384 13.542 17.2724 13.758 16.9364C13.986 16.6004 14.154 16.2764 14.262 15.9644C14.37 15.6524 14.424 15.3404 14.424 15.0284C14.424 14.4284 14.232 13.9724 13.848 13.6604C13.476 13.3484 12.93 13.1924 12.21 13.1924C11.646 13.1924 11.094 13.3004 10.554 13.5164C10.026 13.7204 9.51603 14.0444 9.02403 14.4884L8.25003 12.7604C8.75403 12.3044 9.38403 11.9384 10.14 11.6624C10.896 11.3864 11.682 11.2484 12.498 11.2484C13.41 11.2484 14.178 11.3864 14.802 11.6624C15.426 11.9384 15.9 12.3404 16.224 12.8684C16.548 13.3964 16.71 14.0384 16.71 14.7944C16.71 15.1784 16.662 15.5564 16.566 15.9284C16.482 16.2884 16.344 16.6484 16.152 17.0084C15.972 17.3684 15.738 17.7404 15.45 18.1244C15.174 18.4964 14.838 18.8864 14.442 19.2944L11.058 22.8224V22.2104H17.196V24.1184H8.77203ZM19.673 24.1184L25.811 12.5624V13.3544H19.115V11.4284H27.953V13.1564L22.211 24.1184H19.673Z" fill="black"/>
<rect x="47.625" y="0.493408" width="35.25" height="35.25" rx="17.625" fill="white"/>
<rect x="47.625" y="0.493408" width="35.25" height="35.25" rx="17.625" stroke="#868686"/>
<path d="M65.0015 24.2984C64.4255 24.2984 63.8615 24.2384 63.3095 24.1184C62.7695 24.0104 62.2655 23.8484 61.7975 23.6324C61.3295 23.4164 60.9215 23.1584 60.5735 22.8584L61.3295 21.0944C61.8935 21.5264 62.4695 21.8444 63.0575 22.0484C63.6455 22.2524 64.2695 22.3544 64.9295 22.3544C65.4575 22.3544 65.9015 22.2824 66.2615 22.1384C66.6215 21.9944 66.8915 21.7784 67.0715 21.4904C67.2635 21.2024 67.3595 20.8544 67.3595 20.4464C67.3595 19.8464 67.1555 19.4024 66.7475 19.1144C66.3515 18.8144 65.7695 18.6644 65.0015 18.6644H62.9675V16.7564H64.7855C65.2415 16.7564 65.6315 16.6844 65.9555 16.5404C66.2795 16.3844 66.5315 16.1684 66.7115 15.8924C66.8915 15.6164 66.9815 15.2804 66.9815 14.8844C66.9815 14.3324 66.7955 13.9124 66.4235 13.6244C66.0635 13.3364 65.5355 13.1924 64.8395 13.1924C64.2155 13.1924 63.6335 13.3004 63.0935 13.5164C62.5535 13.7204 62.0375 14.0444 61.5455 14.4884L60.7895 12.7604C61.2935 12.2804 61.9235 11.9084 62.6795 11.6444C63.4355 11.3804 64.2215 11.2484 65.0375 11.2484C65.9135 11.2484 66.6635 11.3864 67.2875 11.6624C67.9115 11.9264 68.3855 12.3104 68.7095 12.8144C69.0455 13.3064 69.2135 13.9064 69.2135 14.6144C69.2135 15.3704 69.0035 16.0244 68.5835 16.5764C68.1635 17.1164 67.5875 17.4764 66.8555 17.6564V17.4404C67.4315 17.5364 67.9235 17.7284 68.3315 18.0164C68.7395 18.3044 69.0515 18.6704 69.2675 19.1144C69.4835 19.5584 69.5915 20.0684 69.5915 20.6444C69.5915 21.3884 69.4055 22.0364 69.0335 22.5884C68.6615 23.1404 68.1335 23.5664 67.4495 23.8664C66.7655 24.1544 65.9495 24.2984 65.0015 24.2984Z" fill="black"/>
<rect x="94.75" y="0.493408" width="35.25" height="35.25" rx="17.625" fill="#AEFE3A"/>
<rect x="94.75" y="0.493408" width="35.25" height="35.25" rx="17.625" stroke="#868686"/>
<path d="M103.544 24.1184V22.2104H106.406V13.3724H107.522L104.192 15.3884L103.292 13.6964L107.072 11.4284H108.71V22.2104H111.392V24.1184H103.544ZM116.803 24.2984C116.359 24.2984 115.909 24.2384 115.453 24.1184C115.009 24.0104 114.583 23.8484 114.175 23.6324C113.779 23.4164 113.419 23.1584 113.095 22.8584L113.869 21.1304C114.301 21.5384 114.769 21.8444 115.273 22.0484C115.789 22.2524 116.305 22.3544 116.821 22.3544C117.349 22.3544 117.811 22.2644 118.207 22.0844C118.615 21.8924 118.957 21.6164 119.233 21.2564C119.509 20.8844 119.713 20.4284 119.845 19.8884C119.989 19.3364 120.061 18.7004 120.061 17.9804V16.6304H120.259C120.175 17.2304 119.977 17.7524 119.665 18.1964C119.353 18.6404 118.957 18.9824 118.477 19.2224C118.009 19.4504 117.475 19.5644 116.875 19.5644C116.155 19.5644 115.513 19.3904 114.949 19.0424C114.385 18.6944 113.935 18.2144 113.599 17.6024C113.275 16.9784 113.113 16.2764 113.113 15.4964C113.113 14.6684 113.293 13.9364 113.653 13.3004C114.013 12.6644 114.505 12.1664 115.129 11.8064C115.765 11.4344 116.491 11.2484 117.307 11.2484C118.363 11.2484 119.257 11.4944 119.989 11.9864C120.721 12.4784 121.279 13.1984 121.663 14.1464C122.047 15.0824 122.239 16.2164 122.239 17.5484C122.239 18.9764 122.023 20.1944 121.591 21.2024C121.159 22.2104 120.535 22.9784 119.719 23.5064C118.915 24.0344 117.943 24.2984 116.803 24.2984ZM117.451 17.7284C117.883 17.7284 118.261 17.6324 118.585 17.4404C118.921 17.2484 119.179 16.9784 119.359 16.6304C119.539 16.2704 119.629 15.8624 119.629 15.4064C119.629 14.9384 119.539 14.5304 119.359 14.1824C119.179 13.8344 118.921 13.5644 118.585 13.3724C118.261 13.1684 117.883 13.0664 117.451 13.0664C117.019 13.0664 116.641 13.1684 116.317 13.3724C115.993 13.5644 115.735 13.8344 115.543 14.1824C115.363 14.5304 115.273 14.9384 115.273 15.4064C115.273 15.8624 115.363 16.2704 115.543 16.6304C115.735 16.9784 115.993 17.2484 116.317 17.4404C116.641 17.6324 117.019 17.7284 117.451 17.7284Z" fill="black"/>
<rect x="141.875" y="0.493408" width="35.25" height="35.25" rx="17.625" fill="white"/>
<rect x="141.875" y="0.493408" width="35.25" height="35.25" rx="17.625" stroke="#868686"/>
<path d="M154.989 24.1184V21.7064H149.463V20.0144L155.385 11.4284H157.293V19.7984H159.075V21.7064H157.293V24.1184H154.989ZM154.989 19.7984V14.1824H155.511L151.263 20.4104V19.7984H154.989ZM161.462 24.1184V22.2104H164.324V13.3724H165.44L162.11 15.3884L161.21 13.6964L164.99 11.4284H166.628V22.2104H169.31V24.1184H161.462Z" fill="black"/>
<rect x="189" y="0.493408" width="35.25" height="35.25" rx="17.625" fill="#AEFE3A"/>
<rect x="189" y="0.493408" width="35.25" height="35.25" rx="17.625" stroke="#868686"/>
<path d="M203.191 24.1184V22.2104H206.053V13.3724H207.169L203.839 15.3884L202.939 13.6964L206.719 11.4284H208.357V22.2104H211.039V24.1184H203.191Z" fill="black"/>
<rect x="236.125" y="0.493408" width="35.25" height="35.25" rx="17.625" fill="#AEFE3A"/>
<rect x="236.125" y="0.493408" width="35.25" height="35.25" rx="17.625" stroke="#868686"/>
<path d="M244.919 24.1184V22.2104H247.781V13.3724H248.897L245.567 15.3884L244.667 13.6964L248.447 11.4284H250.085V22.2104H252.767V24.1184H244.919ZM258.178 24.2984C257.734 24.2984 257.284 24.2384 256.828 24.1184C256.384 24.0104 255.958 23.8484 255.55 23.6324C255.154 23.4164 254.794 23.1584 254.47 22.8584L255.244 21.1304C255.676 21.5384 256.144 21.8444 256.648 22.0484C257.164 22.2524 257.68 22.3544 258.196 22.3544C258.724 22.3544 259.186 22.2644 259.582 22.0844C259.99 21.8924 260.332 21.6164 260.608 21.2564C260.884 20.8844 261.088 20.4284 261.22 19.8884C261.364 19.3364 261.436 18.7004 261.436 17.9804V16.6304H261.634C261.55 17.2304 261.352 17.7524 261.04 18.1964C260.728 18.6404 260.332 18.9824 259.852 19.2224C259.384 19.4504 258.85 19.5644 258.25 19.5644C257.53 19.5644 256.888 19.3904 256.324 19.0424C255.76 18.6944 255.31 18.2144 254.974 17.6024C254.65 16.9784 254.488 16.2764 254.488 15.4964C254.488 14.6684 254.668 13.9364 255.028 13.3004C255.388 12.6644 255.88 12.1664 256.504 11.8064C257.14 11.4344 257.866 11.2484 258.682 11.2484C259.738 11.2484 260.632 11.4944 261.364 11.9864C262.096 12.4784 262.654 13.1984 263.038 14.1464C263.422 15.0824 263.614 16.2164 263.614 17.5484C263.614 18.9764 263.398 20.1944 262.966 21.2024C262.534 22.2104 261.91 22.9784 261.094 23.5064C260.29 24.0344 259.318 24.2984 258.178 24.2984ZM258.826 17.7284C259.258 17.7284 259.636 17.6324 259.96 17.4404C260.296 17.2484 260.554 16.9784 260.734 16.6304C260.914 16.2704 261.004 15.8624 261.004 15.4064C261.004 14.9384 260.914 14.5304 260.734 14.1824C260.554 13.8344 260.296 13.5644 259.96 13.3724C259.636 13.1684 259.258 13.0664 258.826 13.0664C258.394 13.0664 258.016 13.1684 257.692 13.3724C257.368 13.5644 257.11 13.8344 256.918 14.1824C256.738 14.5304 256.648 14.9384 256.648 15.4064C256.648 15.8624 256.738 16.2704 256.918 16.6304C257.11 16.9784 257.368 17.2484 257.692 17.4404C258.016 17.6324 258.394 17.7284 258.826 17.7284Z" fill="black"/>
<rect x="283.25" y="0.493408" width="35.25" height="35.25" rx="17.625" fill="white"/>
<rect x="283.25" y="0.493408" width="35.25" height="35.25" rx="17.625" stroke="#868686"/>
<path d="M291.522 24.1184V22.4084L295.626 18.0344C295.998 17.6384 296.292 17.2724 296.508 16.9364C296.736 16.6004 296.904 16.2764 297.012 15.9644C297.12 15.6524 297.174 15.3404 297.174 15.0284C297.174 14.4284 296.982 13.9724 296.598 13.6604C296.226 13.3484 295.68 13.1924 294.96 13.1924C294.396 13.1924 293.844 13.3004 293.304 13.5164C292.776 13.7204 292.266 14.0444 291.774 14.4884L291 12.7604C291.504 12.3044 292.134 11.9384 292.89 11.6624C293.646 11.3864 294.432 11.2484 295.248 11.2484C296.16 11.2484 296.928 11.3864 297.552 11.6624C298.176 11.9384 298.65 12.3404 298.974 12.8684C299.298 13.3964 299.46 14.0384 299.46 14.7944C299.46 15.1784 299.412 15.5564 299.316 15.9284C299.232 16.2884 299.094 16.6484 298.902 17.0084C298.722 17.3684 298.488 17.7404 298.2 18.1244C297.924 18.4964 297.588 18.8864 297.192 19.2944L293.808 22.8224V22.2104H299.946V24.1184H291.522ZM302.837 24.1184V22.2104H305.699V13.3724H306.815L303.485 15.3884L302.585 13.6964L306.365 11.4284H308.003V22.2104H310.685V24.1184H302.837Z" fill="black"/>
</svg>
