<svg width="319" height="37" viewBox="0 0 319 37" fill="none" xmlns="http://www.w3.org/2000/svg">
<rect x="0.5" y="0.5" width="35.25" height="35.25" rx="17.625" fill="white"/>
<rect x="0.5" y="0.5" width="35.25" height="35.25" rx="17.625" stroke="#868686"/>
<path d="M8.77203 24.125V22.415L12.876 18.041C13.248 17.645 13.542 17.279 13.758 16.943C13.986 16.607 14.154 16.283 14.262 15.971C14.37 15.659 14.424 15.347 14.424 15.035C14.424 14.435 14.232 13.979 13.848 13.667C13.476 13.355 12.93 13.199 12.21 13.199C11.646 13.199 11.094 13.307 10.554 13.523C10.026 13.727 9.51603 14.051 9.02403 14.495L8.25003 12.767C8.75403 12.311 9.38403 11.945 10.14 11.669C10.896 11.393 11.682 11.255 12.498 11.255C13.41 11.255 14.178 11.393 14.802 11.669C15.426 11.945 15.9 12.347 16.224 12.875C16.548 13.403 16.71 14.045 16.71 14.801C16.71 15.185 16.662 15.563 16.566 15.935C16.482 16.295 16.344 16.655 16.152 17.015C15.972 17.375 15.738 17.747 15.45 18.131C15.174 18.503 14.838 18.893 14.442 19.301L11.058 22.829V22.217H17.196V24.125H8.77203ZM19.673 24.125L25.811 12.569V13.361H19.115V11.435H27.953V13.163L22.211 24.125H19.673Z" fill="black"/>
<rect x="47.625" y="0.5" width="35.25" height="35.25" rx="17.625" fill="#AEFE3A"/>
<rect x="47.625" y="0.5" width="35.25" height="35.25" rx="17.625" stroke="#868686"/>
<path d="M65.0015 24.305C64.4255 24.305 63.8615 24.245 63.3095 24.125C62.7695 24.017 62.2655 23.855 61.7975 23.639C61.3295 23.423 60.9215 23.165 60.5735 22.865L61.3295 21.101C61.8935 21.533 62.4695 21.851 63.0575 22.055C63.6455 22.259 64.2695 22.361 64.9295 22.361C65.4575 22.361 65.9015 22.289 66.2615 22.145C66.6215 22.001 66.8915 21.785 67.0715 21.497C67.2635 21.209 67.3595 20.861 67.3595 20.453C67.3595 19.853 67.1555 19.409 66.7475 19.121C66.3515 18.821 65.7695 18.671 65.0015 18.671H62.9675V16.763H64.7855C65.2415 16.763 65.6315 16.691 65.9555 16.547C66.2795 16.391 66.5315 16.175 66.7115 15.899C66.8915 15.623 66.9815 15.287 66.9815 14.891C66.9815 14.339 66.7955 13.919 66.4235 13.631C66.0635 13.343 65.5355 13.199 64.8395 13.199C64.2155 13.199 63.6335 13.307 63.0935 13.523C62.5535 13.727 62.0375 14.051 61.5455 14.495L60.7895 12.767C61.2935 12.287 61.9235 11.915 62.6795 11.651C63.4355 11.387 64.2215 11.255 65.0375 11.255C65.9135 11.255 66.6635 11.393 67.2875 11.669C67.9115 11.933 68.3855 12.317 68.7095 12.821C69.0455 13.313 69.2135 13.913 69.2135 14.621C69.2135 15.377 69.0035 16.031 68.5835 16.583C68.1635 17.123 67.5875 17.483 66.8555 17.663V17.447C67.4315 17.543 67.9235 17.735 68.3315 18.023C68.7395 18.311 69.0515 18.677 69.2675 19.121C69.4835 19.565 69.5915 20.075 69.5915 20.651C69.5915 21.395 69.4055 22.043 69.0335 22.595C68.6615 23.147 68.1335 23.573 67.4495 23.873C66.7655 24.161 65.9495 24.305 65.0015 24.305Z" fill="black"/>
<rect x="94.75" y="0.5" width="35.25" height="35.25" rx="17.625" fill="#AEFE3A"/>
<rect x="94.75" y="0.5" width="35.25" height="35.25" rx="17.625" stroke="#868686"/>
<path d="M103.544 24.125V22.217H106.406V13.379H107.522L104.192 15.395L103.292 13.703L107.072 11.435H108.71V22.217H111.392V24.125H103.544ZM116.803 24.305C116.359 24.305 115.909 24.245 115.453 24.125C115.009 24.017 114.583 23.855 114.175 23.639C113.779 23.423 113.419 23.165 113.095 22.865L113.869 21.137C114.301 21.545 114.769 21.851 115.273 22.055C115.789 22.259 116.305 22.361 116.821 22.361C117.349 22.361 117.811 22.271 118.207 22.091C118.615 21.899 118.957 21.623 119.233 21.263C119.509 20.891 119.713 20.435 119.845 19.895C119.989 19.343 120.061 18.707 120.061 17.987V16.637H120.259C120.175 17.237 119.977 17.759 119.665 18.203C119.353 18.647 118.957 18.989 118.477 19.229C118.009 19.457 117.475 19.571 116.875 19.571C116.155 19.571 115.513 19.397 114.949 19.049C114.385 18.701 113.935 18.221 113.599 17.609C113.275 16.985 113.113 16.283 113.113 15.503C113.113 14.675 113.293 13.943 113.653 13.307C114.013 12.671 114.505 12.173 115.129 11.813C115.765 11.441 116.491 11.255 117.307 11.255C118.363 11.255 119.257 11.501 119.989 11.993C120.721 12.485 121.279 13.205 121.663 14.153C122.047 15.089 122.239 16.223 122.239 17.555C122.239 18.983 122.023 20.201 121.591 21.209C121.159 22.217 120.535 22.985 119.719 23.513C118.915 24.041 117.943 24.305 116.803 24.305ZM117.451 17.735C117.883 17.735 118.261 17.639 118.585 17.447C118.921 17.255 119.179 16.985 119.359 16.637C119.539 16.277 119.629 15.869 119.629 15.413C119.629 14.945 119.539 14.537 119.359 14.189C119.179 13.841 118.921 13.571 118.585 13.379C118.261 13.175 117.883 13.073 117.451 13.073C117.019 13.073 116.641 13.175 116.317 13.379C115.993 13.571 115.735 13.841 115.543 14.189C115.363 14.537 115.273 14.945 115.273 15.413C115.273 15.869 115.363 16.277 115.543 16.637C115.735 16.985 115.993 17.255 116.317 17.447C116.641 17.639 117.019 17.735 117.451 17.735Z" fill="black"/>
<rect x="141.875" y="0.5" width="35.25" height="35.25" rx="17.625" fill="white"/>
<rect x="141.875" y="0.5" width="35.25" height="35.25" rx="17.625" stroke="#868686"/>
<path d="M154.989 24.125V21.713H149.463V20.021L155.385 11.435H157.293V19.805H159.075V21.713H157.293V24.125H154.989ZM154.989 19.805V14.189H155.511L151.263 20.417V19.805H154.989ZM161.462 24.125V22.217H164.324V13.379H165.44L162.11 15.395L161.21 13.703L164.99 11.435H166.628V22.217H169.31V24.125H161.462Z" fill="black"/>
<rect x="189" y="0.5" width="35.25" height="35.25" rx="17.625" fill="white"/>
<rect x="189" y="0.5" width="35.25" height="35.25" rx="17.625" stroke="#868686"/>
<path d="M203.191 24.125V22.217H206.053V13.379H207.169L203.839 15.395L202.939 13.703L206.719 11.435H208.357V22.217H211.039V24.125H203.191Z" fill="black"/>
<rect x="236.125" y="0.5" width="35.25" height="35.25" rx="17.625" fill="white"/>
<rect x="236.125" y="0.5" width="35.25" height="35.25" rx="17.625" stroke="#868686"/>
<path d="M244.919 24.125V22.217H247.781V13.379H248.897L245.567 15.395L244.667 13.703L248.447 11.435H250.085V22.217H252.767V24.125H244.919ZM258.178 24.305C257.734 24.305 257.284 24.245 256.828 24.125C256.384 24.017 255.958 23.855 255.55 23.639C255.154 23.423 254.794 23.165 254.47 22.865L255.244 21.137C255.676 21.545 256.144 21.851 256.648 22.055C257.164 22.259 257.68 22.361 258.196 22.361C258.724 22.361 259.186 22.271 259.582 22.091C259.99 21.899 260.332 21.623 260.608 21.263C260.884 20.891 261.088 20.435 261.22 19.895C261.364 19.343 261.436 18.707 261.436 17.987V16.637H261.634C261.55 17.237 261.352 17.759 261.04 18.203C260.728 18.647 260.332 18.989 259.852 19.229C259.384 19.457 258.85 19.571 258.25 19.571C257.53 19.571 256.888 19.397 256.324 19.049C255.76 18.701 255.31 18.221 254.974 17.609C254.65 16.985 254.488 16.283 254.488 15.503C254.488 14.675 254.668 13.943 255.028 13.307C255.388 12.671 255.88 12.173 256.504 11.813C257.14 11.441 257.866 11.255 258.682 11.255C259.738 11.255 260.632 11.501 261.364 11.993C262.096 12.485 262.654 13.205 263.038 14.153C263.422 15.089 263.614 16.223 263.614 17.555C263.614 18.983 263.398 20.201 262.966 21.209C262.534 22.217 261.91 22.985 261.094 23.513C260.29 24.041 259.318 24.305 258.178 24.305ZM258.826 17.735C259.258 17.735 259.636 17.639 259.96 17.447C260.296 17.255 260.554 16.985 260.734 16.637C260.914 16.277 261.004 15.869 261.004 15.413C261.004 14.945 260.914 14.537 260.734 14.189C260.554 13.841 260.296 13.571 259.96 13.379C259.636 13.175 259.258 13.073 258.826 13.073C258.394 13.073 258.016 13.175 257.692 13.379C257.368 13.571 257.11 13.841 256.918 14.189C256.738 14.537 256.648 14.945 256.648 15.413C256.648 15.869 256.738 16.277 256.918 16.637C257.11 16.985 257.368 17.255 257.692 17.447C258.016 17.639 258.394 17.735 258.826 17.735Z" fill="black"/>
<rect x="283.25" y="0.5" width="35.25" height="35.25" rx="17.625" fill="white"/>
<rect x="283.25" y="0.5" width="35.25" height="35.25" rx="17.625" stroke="#868686"/>
<path d="M291.522 24.125V22.415L295.626 18.041C295.998 17.645 296.292 17.279 296.508 16.943C296.736 16.607 296.904 16.283 297.012 15.971C297.12 15.659 297.174 15.347 297.174 15.035C297.174 14.435 296.982 13.979 296.598 13.667C296.226 13.355 295.68 13.199 294.96 13.199C294.396 13.199 293.844 13.307 293.304 13.523C292.776 13.727 292.266 14.051 291.774 14.495L291 12.767C291.504 12.311 292.134 11.945 292.89 11.669C293.646 11.393 294.432 11.255 295.248 11.255C296.16 11.255 296.928 11.393 297.552 11.669C298.176 11.945 298.65 12.347 298.974 12.875C299.298 13.403 299.46 14.045 299.46 14.801C299.46 15.185 299.412 15.563 299.316 15.935C299.232 16.295 299.094 16.655 298.902 17.015C298.722 17.375 298.488 17.747 298.2 18.131C297.924 18.503 297.588 18.893 297.192 19.301L293.808 22.829V22.217H299.946V24.125H291.522ZM302.837 24.125V22.217H305.699V13.379H306.815L303.485 15.395L302.585 13.703L306.365 11.435H308.003V22.217H310.685V24.125H302.837Z" fill="black"/>
</svg>
